/* XPM */
static char * bitcoin16_xpm[] = {
"16 16 177 2",
"  	c None",
". 	c #B9A972",
"+ 	c #BEAD67",
"@ 	c #BDA74D",
"# 	c #B7A146",
"$ 	c #9F8533",
"% 	c #BCAF80",
"& 	c #D7CEA0",
"* 	c #F5F0BB",
"= 	c #F5ED9D",
"- 	c #ECDB74",
"; 	c #E8D463",
"> 	c #D3BA4C",
", 	c #B39634",
"' 	c #967A29",
") 	c #D9CE86",
"! 	c #F2EBAC",
"~ 	c #F7ED9F",
"{ 	c #F8EE9C",
"] 	c #F4E88B",
"^ 	c #E8D56B",
"/ 	c #E6D05D",
"( 	c #D8BD4C",
"_ 	c #CAAC3B",
": 	c #B4942F",
"< 	c #8F7426",
"[ 	c #BDA84B",
"} 	c #EEDF7D",
"| 	c #F4E88C",
"1 	c #F1E27E",
"2 	c #F7ED98",
"3 	c #E0D380",
"4 	c #CFBC60",
"5 	c #DAC250",
"6 	c #D4B844",
"7 	c #CDAF3E",
"8 	c #B6942D",
"9 	c #9D7C24",
"0 	c #C4AC49",
"a 	c #E2CD64",
"b 	c #E6D370",
"c 	c #EFE085",
"d 	c #DED07B",
"e 	c #D4C369",
"f 	c #E1D16A",
"g 	c #D7C050",
"h 	c #CEB03E",
"i 	c #C2A236",
"j 	c #B3922F",
"k 	c #A58125",
"l 	c #826520",
"m 	c #9C7D26",
"n 	c #CFB241",
"o 	c #D4BA4F",
"p 	c #DBC45C",
"q 	c #DFCC69",
"r 	c #D5C059",
"s 	c #E5D364",
"t 	c #EBD75F",
"u 	c #CDB345",
"v 	c #BC9C33",
"w 	c #AC8A2B",
"x 	c #9C7821",
"y 	c #89691E",
"z 	c #9A7922",
"A 	c #C0A036",
"B 	c #C9AC42",
"C 	c #C4A742",
"D 	c #CAAF45",
"E 	c #D8BF4C",
"F 	c #DBC24C",
"G 	c #D0B544",
"H 	c #BFA137",
"I 	c #BF9E32",
"J 	c #B18F2C",
"K 	c #A37E22",
"L 	c #9A751E",
"M 	c #927121",
"N 	c #98741F",
"O 	c #AC8827",
"P 	c #B89835",
"Q 	c #C3A53F",
"R 	c #BE9E36",
"S 	c #CEAF39",
"T 	c #C0A135",
"U 	c #BC9C31",
"V 	c #B18F2A",
"W 	c #B5912A",
"X 	c #A68123",
"Y 	c #9E7A20",
"Z 	c #926D1C",
"` 	c #947222",
" .	c #634D21",
"..	c #886419",
"+.	c #9F7B22",
"@.	c #AE8D2E",
"#.	c #B49534",
"$.	c #A9872A",
"%.	c #B49028",
"&.	c #AC8927",
"*.	c #AF8B26",
"=.	c #987520",
"-.	c #A27F24",
";.	c #A17D23",
">.	c #95711E",
",.	c #88671D",
"'.	c #7C5A17",
").	c #8F6C1C",
"!.	c #977320",
"~.	c #997521",
"{.	c #916E1E",
"].	c #98731E",
"^.	c #8D6A1C",
"/.	c #926E1D",
"(.	c #906D1E",
"_.	c #9C7923",
":.	c #9C7A24",
"<.	c #88651A",
"[.	c #836018",
"}.	c #7A5B1B",
"|.	c #755415",
"1.	c #815E18",
"2.	c #89661B",
"3.	c #8B661A",
"4.	c #846119",
"5.	c #8B671A",
"6.	c #92701F",
"7.	c #89681C",
"8.	c #7B5917",
"9.	c #6A4E18",
"0.	c #6D4E15",
"a.	c #715014",
"b.	c #7E5C17",
"c.	c #826119",
"d.	c #89671C",
"e.	c #825F18",
"f.	c #735215",
"g.	c #836019",
"h.	c #86641B",
"i.	c #987722",
"j.	c #96741F",
"k.	c #7E5C18",
"l.	c #715217",
"m.	c #5C4418",
"n.	c #6B4B13",
"o.	c #725114",
"p.	c #795816",
"q.	c #725115",
"r.	c #815F19",
"s.	c #83621A",
"t.	c #85631A",
"u.	c #83631D",
"v.	c #6C511A",
"w.	c #785B1C",
"x.	c #785A1C",
"y.	c #694912",
"z.	c #704F14",
"A.	c #735214",
"B.	c #785716",
"C.	c #725215",
"D.	c #6C4C14",
"E.	c #795A1B",
"F.	c #796023",
"G.	c #7C6023",
"H.	c #694D19",
"I.	c #644717",
"J.	c #664714",
"K.	c #694913",
"L.	c #674812",
"M.	c #6E5019",
"N.	c #6E521D",
"O.	c #664B1A",
"P.	c #7A6029",
"Q.	c #745A25",
"R.	c #725823",
"S.	c #705623",
"T.	c #6C5524",
"            . + @ # $           ",
"        % & * = - ; > , '       ",
"      ) ! ~ { ] ^ / ( _ : <     ",
"    [ } | 1 2 3 4 5 6 7 8 9     ",
"    0 a b c d e f g h i j k l   ",
"  m n o p q r s t u _ v w x y   ",
"  z A B C D E F G H I J K L M   ",
"  N O P Q R S T U V W X Y Z `  .",
"  ..+.@.#.$.%.&.*.=.-.;.>...,.  ",
"  '.).!.~.{.].^./.(._.:.<.[.}.  ",
"  |.1.2.=.(.3.4.Z 5.6.7.1.8.9.  ",
"  0.a.b.c.d.e.f.g.h.i.j.k.l.m.  ",
"    l.n.o.k.p.q.r.s.t.b.u.v.    ",
"    w.x.y.z.a.A.B.C.D.E.F.      ",
"      G.H.I.J.K.L.M.N.O.        ",
"          P.Q.R.S.T.            "};
