/* XPM */
static char * bitcoin32_xpm[] = {
"32 32 674 2",
"  	c None",
". 	c #937C3D",
"+ 	c #947D3B",
"@ 	c #957F3D",
"# 	c #96803A",
"$ 	c #937A34",
"% 	c #907730",
"& 	c #886E28",
"* 	c #937F48",
"= 	c #AC9B67",
"- 	c #C0B480",
"; 	c #D0C37F",
"> 	c #DCCF7F",
", 	c #E2D47A",
"' 	c #DECE6D",
") 	c #D2BF5D",
"! 	c #C1AB4C",
"~ 	c #AB923B",
"{ 	c #967B2E",
"] 	c #7C6121",
"^ 	c #978249",
"/ 	c #B3A574",
"( 	c #DAD2AB",
"_ 	c #F8F4C7",
": 	c #FBF8C8",
"< 	c #F8F2AB",
"[ 	c #F9F19D",
"} 	c #F3E683",
"| 	c #F2E37A",
"1 	c #E9D666",
"2 	c #E4CF5E",
"3 	c #D7BE4B",
"4 	c #CFB547",
"5 	c #B09536",
"6 	c #93782B",
"7 	c #755A1E",
"8 	c #836D36",
"9 	c #AE9D64",
"0 	c #CCC39D",
"a 	c #F8F4CE",
"b 	c #FCF9D4",
"c 	c #FBF5C0",
"d 	c #FAF3B1",
"e 	c #F7EE9A",
"f 	c #F6EB8E",
"g 	c #F0E179",
"h 	c #EFDF75",
"i 	c #EAD668",
"j 	c #E8D466",
"k 	c #DBC250",
"l 	c #D5BA49",
"m 	c #C5A738",
"n 	c #BC9E35",
"o 	c #A0832C",
"p 	c #73561B",
"q 	c #7E652E",
"r 	c #B5A76D",
"s 	c #F1EBB6",
"t 	c #F9F6CD",
"u 	c #FBF5BF",
"v 	c #FAF3B2",
"w 	c #F7ED9B",
"x 	c #F6EC97",
"y 	c #F6EB92",
"z 	c #F2E587",
"A 	c #EFDE72",
"B 	c #ECDA6B",
"C 	c #E6D262",
"D 	c #E1CB59",
"E 	c #DAC14F",
"F 	c #D8BF4E",
"G 	c #CDAF40",
"H 	c #C1A134",
"I 	c #BD9C32",
"J 	c #A8872A",
"K 	c #74561A",
"L 	c #7A6229",
"M 	c #B4A460",
"N 	c #F1E9A0",
"O 	c #F9F2AE",
"P 	c #F9F2AB",
"Q 	c #F5E989",
"R 	c #F6EB8F",
"S 	c #F8EFA1",
"T 	c #F6ED9E",
"U 	c #F2E796",
"V 	c #F1E27B",
"W 	c #E9D76A",
"X 	c #E7D360",
"Y 	c #E3CC5A",
"Z 	c #DBC24F",
"` 	c #D4B948",
" .	c #CBAE41",
"..	c #CBAC3B",
"+.	c #BD9A2E",
"@.	c #BA982E",
"#.	c #A38429",
"$.	c #694F1B",
"%.	c #806625",
"&.	c #B19D4D",
"*.	c #F4E889",
"=.	c #F9F09F",
"-.	c #F6EC94",
";.	c #F3E686",
">.	c #F2E379",
",.	c #F2E480",
"'.	c #F5E98D",
").	c #F6ED9C",
"!.	c #F8F09F",
"~.	c #F3E892",
"{.	c #D5C368",
"].	c #C7B355",
"^.	c #E2CB58",
"/.	c #E1C954",
"(.	c #D9BE4A",
"_.	c #D0B444",
":.	c #C3A439",
"<.	c #C8AB3E",
"[.	c #C2A339",
"}.	c #B6932C",
"|.	c #B9962C",
"1.	c #927424",
"2.	c #664D1B",
"3.	c #9F8735",
"4.	c #DBC861",
"5.	c #F0E178",
"6.	c #F1E37F",
"7.	c #ECDB74",
"8.	c #EDDB71",
"9.	c #F2E482",
"0.	c #F1E487",
"a.	c #F7EE9E",
"b.	c #E2D688",
"c.	c #CAB96A",
"d.	c #CCBC69",
"e.	c #C4AF53",
"f.	c #DCC451",
"g.	c #DCC24B",
"h.	c #D6BA45",
"i.	c #CCAF3E",
"j.	c #C7A83A",
"k.	c #C4A63C",
"l.	c #BC9D37",
"m.	c #B2912D",
"n.	c #A68123",
"o.	c #9F7E26",
"p.	c #74591F",
"q.	c #856923",
"r.	c #AF973B",
"s.	c #E2CF62",
"t.	c #ECDB72",
"u.	c #E9D66E",
"v.	c #E5D164",
"w.	c #EAD76C",
"x.	c #EFE185",
"y.	c #F5EB9A",
"z.	c #DED07F",
"A.	c #CAB96B",
"B.	c #D4C46D",
"C.	c #DECF71",
"D.	c #CEBA59",
"E.	c #D4BE52",
"F.	c #DFC64E",
"G.	c #D2B43F",
"H.	c #C5A536",
"I.	c #C2A236",
"J.	c #C0A139",
"K.	c #B89834",
"L.	c #B89833",
"M.	c #AB8727",
"N.	c #A37E23",
"O.	c #947424",
"P.	c #5B4419",
"Q.	c #947628",
"R.	c #CBAF41",
"S.	c #E3CC59",
"T.	c #E1CA5D",
"U.	c #E2CC65",
"V.	c #E7D46D",
"W.	c #EBDA76",
"X.	c #EEDE7B",
"Y.	c #F4E991",
"Z.	c #D7C876",
"`.	c #C8B662",
" +	c #CAB862",
".+	c #DFCF70",
"++	c #E9DA72",
"@+	c #F2E16E",
"#+	c #D3BC50",
"$+	c #D1B746",
"%+	c #D3B640",
"&+	c #CBAC3C",
"*+	c #C6A739",
"=+	c #BB9B33",
"-+	c #B69632",
";+	c #B39330",
">+	c #A98526",
",+	c #9B761F",
"'+	c #9B7923",
")+	c #6C521C",
"!+	c #7E601D",
"~+	c #AC8E2E",
"{+	c #D3B644",
"]+	c #DBC151",
"^+	c #D8BF53",
"/+	c #DBC359",
"(+	c #DEC860",
"_+	c #E5D26D",
":+	c #E9D878",
"<+	c #D7C365",
"[+	c #C1AA4F",
"}+	c #CCBA5E",
"|+	c #DECD68",
"1+	c #F4E676",
"2+	c #F1E06C",
"3+	c #EDD961",
"4+	c #DFC852",
"5+	c #CAAF42",
"6+	c #D5B842",
"7+	c #CDAE3B",
"8+	c #BE9D33",
"9+	c #B99932",
"0+	c #B3922F",
"a+	c #AF8E2D",
"b+	c #AB8A2A",
"c+	c #9D7921",
"d+	c #977320",
"e+	c #80631F",
"f+	c #886A1F",
"g+	c #B5942E",
"h+	c #CDAF3C",
"i+	c #CFB244",
"j+	c #D1B64A",
"k+	c #D6BD52",
"l+	c #D8C059",
"m+	c #E0CB65",
"n+	c #D3BF63",
"o+	c #D5C15D",
"p+	c #D0BB56",
"q+	c #D7C35A",
"r+	c #F1DF6B",
"s+	c #EFDC65",
"t+	c #EBD75E",
"u+	c #E7D055",
"v+	c #E2C94F",
"w+	c #B89D3A",
"x+	c #C9AC3F",
"y+	c #BA9931",
"z+	c #B4932F",
"A+	c #AF8D2C",
"B+	c #A68225",
"C+	c #A27E23",
"D+	c #99741F",
"E+	c #926D1D",
"F+	c #907022",
"G+	c #503B18",
"H+	c #765818",
"I+	c #8C6D20",
"J+	c #B3912C",
"K+	c #C3A335",
"L+	c #C6A73C",
"M+	c #CFB448",
"N+	c #D2B74F",
"O+	c #CEB34D",
"P+	c #C8AE47",
"Q+	c #E8D259",
"R+	c #DDC754",
"S+	c #D7C152",
"T+	c #E9D45A",
"U+	c #E7D056",
"V+	c #E4CB50",
"W+	c #DAC14B",
"X+	c #C5AA3F",
"Y+	c #A6892D",
"Z+	c #C1A338",
"`+	c #C7A738",
" @	c #B9972F",
".@	c #B08E2C",
"+@	c #A98728",
"@@	c #A07B20",
"#@	c #9B761E",
"$@	c #96711D",
"%@	c #98731D",
"&@	c #997925",
"*@	c #57411B",
"=@	c #775818",
"-@	c #947220",
";@	c #B18D28",
">@	c #B7952C",
",@	c #BB9A31",
"'@	c #C1A035",
")@	c #C5A63A",
"!@	c #CDB147",
"~@	c #CBB04A",
"{@	c #C1A53F",
"]@	c #E1C74B",
"^@	c #E2C84D",
"/@	c #CFB444",
"(@	c #D7BD47",
"_@	c #DEC448",
":@	c #CAB043",
"<@	c #BDA139",
"[@	c #C1A235",
"}@	c #B69730",
"|@	c #BD9C33",
"1@	c #B4912B",
"2@	c #AA8828",
"3@	c #A27E22",
"4@	c #9C761E",
"5@	c #946F1C",
"6@	c #936E1B",
"7@	c #997724",
"8@	c #5D461B",
"9@	c #755617",
"0@	c #95721E",
"a@	c #AB8625",
"b@	c #AD8A27",
"c@	c #B3902B",
"d@	c #B7942D",
"e@	c #BA9933",
"f@	c #C9AC45",
"g@	c #CFB651",
"h@	c #B99C3A",
"i@	c #D6B83F",
"j@	c #D7BA40",
"k@	c #CFB13C",
"l@	c #BDA038",
"m@	c #BA9C34",
"n@	c #CAA935",
"o@	c #CAA934",
"p@	c #AE8D2A",
"q@	c #B8972F",
"r@	c #B7952F",
"s@	c #B08D29",
"t@	c #A37F23",
"u@	c #9D771E",
"v@	c #9C771F",
"w@	c #98731E",
"x@	c #936E1C",
"y@	c #906B1B",
"z@	c #987622",
"A@	c #60481A",
"B@	c #785917",
"C@	c #A37E22",
"D@	c #A37F22",
"E@	c #A78223",
"F@	c #BFA13A",
"G@	c #C2A43F",
"H@	c #C7AB47",
"I@	c #B19233",
"J@	c #CBAA35",
"K@	c #CCAB36",
"L@	c #CDAC36",
"M@	c #B3932E",
"N@	c #B29330",
"O@	c #C8A633",
"P@	c #C5A230",
"Q@	c #B3922B",
"R@	c #A18026",
"S@	c #B28F29",
"T@	c #AA8523",
"U@	c #A58022",
"V@	c #9C761D",
"W@	c #A07B21",
"X@	c #9E7A21",
"Y@	c #95701D",
"Z@	c #8F6B1B",
"`@	c #8C681A",
" #	c #987623",
".#	c #5F461A",
"+#	c #755517",
"@#	c #8C671B",
"##	c #99741E",
"$#	c #99751F",
"%#	c #A17D22",
"&#	c #A9882C",
"*#	c #BB9C37",
"=#	c #BC9D39",
"-#	c #BFA13D",
";#	c #A4842E",
">#	c #C19D2E",
",#	c #C19E2E",
"'#	c #B08E29",
")#	c #B3902A",
"!#	c #BE9A2C",
"~#	c #A88626",
"{#	c #A88525",
"]#	c #9E7D25",
"^#	c #AE8B29",
"/#	c #A78324",
"(#	c #9E7920",
"_#	c #956F1C",
":#	c #8D6719",
"<#	c #8A661A",
"[#	c #8B671A",
"}#	c #957324",
"|#	c #584119",
"1#	c #745316",
"2#	c #856119",
"3#	c #946F1D",
"4#	c #936F1D",
"5#	c #9D7820",
"6#	c #A28026",
"7#	c #AB8A2D",
"8#	c #B59635",
"9#	c #BA9C39",
"0#	c #A2822D",
"a#	c #A68224",
"b#	c #AD8926",
"c#	c #A78424",
"d#	c #A98625",
"e#	c #A38023",
"f#	c #AC8623",
"g#	c #9A7823",
"h#	c #AA882A",
"i#	c #A9882B",
"j#	c #9C7922",
"k#	c #997520",
"l#	c #876218",
"m#	c #876319",
"n#	c #896519",
"o#	c #907023",
"p#	c #503917",
"q#	c #6E4F16",
"r#	c #795617",
"s#	c #886419",
"t#	c #987520",
"u#	c #9C7921",
"v#	c #A38025",
"w#	c #AA892C",
"x#	c #957424",
"y#	c #A37E21",
"z#	c #8D6B1D",
"A#	c #8C6A1C",
"B#	c #98741E",
"C#	c #A78121",
"D#	c #9A7822",
"E#	c #8F6E21",
"F#	c #A17D23",
"G#	c #987724",
"H#	c #9D7D27",
"I#	c #957320",
"J#	c #866218",
"K#	c #856218",
"L#	c #8B671B",
"M#	c #8B6C23",
"N#	c #493416",
"O#	c #6F5116",
"P#	c #765416",
"Q#	c #835F18",
"R#	c #8C691B",
"S#	c #926F1E",
"T#	c #94701D",
"U#	c #96711E",
"V#	c #9A7621",
"W#	c #8C6A1E",
"X#	c #94711F",
"Y#	c #9A7620",
"Z#	c #A07A1F",
"`#	c #8A671B",
" $	c #8B681B",
".$	c #9F791E",
"+$	c #957220",
"@$	c #927121",
"#$	c #8E6C1E",
"$$	c #967320",
"%$	c #916E1E",
"&$	c #9D7B24",
"*$	c #977623",
"=$	c #8D6A1D",
"-$	c #7D5A16",
";$	c #775A1C",
">$	c #3E2C16",
",$	c #6E4F15",
"'$	c #745315",
")$	c #785515",
"!$	c #815E18",
"~$	c #87641A",
"{$	c #8C691C",
"]$	c #906D1D",
"^$	c #88661B",
"/$	c #8E681A",
"($	c #8F6B1C",
"_$	c #8E6A1B",
":$	c #8E691A",
"<$	c #95711E",
"[$	c #88651A",
"}$	c #866219",
"|$	c #8B6B1F",
"1$	c #94711E",
"2$	c #947321",
"3$	c #89671C",
"4$	c #846018",
"5$	c #8B681C",
"6$	c #815F19",
"7$	c #725014",
"8$	c #88661D",
"9$	c #63491A",
"0$	c #6C4E16",
"a$	c #715014",
"b$	c #7E5B17",
"c$	c #805E18",
"d$	c #86641A",
"e$	c #8E6B1D",
"f$	c #88661C",
"g$	c #846119",
"h$	c #8C6619",
"i$	c #825F19",
"j$	c #7F5C17",
"k$	c #89671D",
"l$	c #84621B",
"m$	c #927020",
"n$	c #87661C",
"o$	c #836019",
"p$	c #775415",
"q$	c #84641D",
"r$	c #4B3616",
"s$	c #745417",
"t$	c #6B4A13",
"u$	c #735114",
"v$	c #785616",
"w$	c #815F18",
"x$	c #86631A",
"y$	c #855F17",
"z$	c #7C5816",
"A$	c #8B6519",
"B$	c #836119",
"C$	c #8B691C",
"D$	c #937221",
"E$	c #84631A",
"F$	c #8A681C",
"G$	c #8B6A1C",
"H$	c #85631A",
"I$	c #7E5C18",
"J$	c #6C4B13",
"K$	c #81601B",
"L$	c #6D521B",
"M$	c #3D2A16",
"N$	c #715216",
"O$	c #765415",
"P$	c #7F5D17",
"Q$	c #8A671A",
"R$	c #85621A",
"S$	c #805C17",
"T$	c #7A5817",
"U$	c #7A5715",
"V$	c #7B5917",
"W$	c #7D5C19",
"X$	c #8A691C",
"Y$	c #87671C",
"Z$	c #8C6B1D",
"`$	c #826018",
" %	c #7E5C17",
".%	c #7D5B18",
"+%	c #725114",
"@%	c #704F15",
"#%	c #7D5E1C",
"$%	c #4F3917",
"%%	c #745518",
"&%	c #634412",
"*%	c #6A4912",
"=%	c #755315",
"-%	c #715114",
";%	c #826019",
">%	c #7F5D18",
",%	c #84621A",
"'%	c #725216",
")%	c #725115",
"!%	c #775516",
"~%	c #85631B",
"{%	c #86651B",
"]%	c #85641B",
"^%	c #7C5C18",
"/%	c #6D4C13",
"(%	c #6B4913",
"_%	c #85651F",
":%	c #654C1B",
"<%	c #765919",
"[%	c #6D4E15",
"}%	c #5F4111",
"|%	c #6E4D13",
"1%	c #704F14",
"2%	c #7B5A17",
"3%	c #7C5B17",
"4%	c #755415",
"5%	c #785716",
"6%	c #745215",
"7%	c #775515",
"8%	c #805F19",
"9%	c #7E5D18",
"0%	c #7F5E18",
"a%	c #6B4B13",
"b%	c #7C5C1C",
"c%	c #73571C",
"d%	c #3F2B15",
"e%	c #76591A",
"f%	c #6B4D17",
"g%	c #5E3F11",
"h%	c #694912",
"i%	c #765515",
"j%	c #775616",
"k%	c #7A5816",
"l%	c #6F4E13",
"m%	c #795716",
"n%	c #7D5C18",
"o%	c #7D5C17",
"p%	c #654411",
"q%	c #76581D",
"r%	c #74591E",
"s%	c #4C3515",
"t%	c #74581B",
"u%	c #6E5018",
"v%	c #5A3D11",
"w%	c #624311",
"x%	c #6A4A12",
"y%	c #735215",
"z%	c #7C5A17",
"A%	c #7A5917",
"B%	c #664612",
"C%	c #614212",
"D%	c #7D5E1D",
"E%	c #74581E",
"F%	c #553F19",
"G%	c #7A5E1F",
"H%	c #6E511B",
"I%	c #5D3F11",
"J%	c #5C3E10",
"K%	c #684812",
"L%	c #6A4A13",
"M%	c #6F4F14",
"N%	c #705014",
"O%	c #6C4C13",
"P%	c #634411",
"Q%	c #5F4011",
"R%	c #6E4E16",
"S%	c #836421",
"T%	c #73581F",
"U%	c #4A3415",
"V%	c #806525",
"W%	c #806425",
"X%	c #5D4012",
"Y%	c #593C10",
"Z%	c #604110",
"`%	c #5F4110",
" &	c #604111",
".&	c #5F4010",
"+&	c #5E4011",
"@&	c #5E3F10",
"#&	c #684A16",
"$&	c #7C5F21",
"%&	c #7C6021",
"&&	c #644E20",
"*&	c #3E2B15",
"=&	c #745B25",
"-&	c #7F662B",
";&	c #82692D",
">&	c #7C6128",
",&	c #725520",
"'&	c #6B4D1A",
")&	c #654919",
"!&	c #684B1A",
"~&	c #70531D",
"{&	c #795D23",
"]&	c #836728",
"^&	c #7D6226",
"/&	c #6C5523",
"(&	c #765E2B",
"_&	c #7D652F",
":&	c #806933",
"<&	c #816935",
"[&	c #7E6731",
"}&	c #7A632C",
"|&	c #6D5725",
"1&	c #5D471F",
"                          . + @ # $ % &                         ",
"                      * = - ; > , ' ) ! ~ { ]                   ",
"                  ^ / ( _ : < [ } | 1 2 3 4 5 6 7               ",
"              8 9 0 a b c d e f g h i j k l m n o p             ",
"            q r s t u v w x y z A B C D E F G H I J K           ",
"          L M N O P y Q R S T U V W X Y Z `  ...+.@.#.$.        ",
"        %.&.*.=.-.;.>.,.'.).!.~.{.].^./.(._.:.<.[.}.|.1.2.      ",
"        3.4.5.6.7.8.9.0.~.a.b.c.d.e.f.g.h.i.j.k.l.m.n.o.p.      ",
"      q.r.s.t.u.v.w.7.x.y.z.A.B.C.D.E.F.G.H.I.J.K.L.M.N.O.P.    ",
"      Q.R.S.T.U.V.W.X.Y.Z.`. +.+++@+#+$+%+&+*+=+-+;+>+,+'+)+    ",
"    !+~+{+]+^+/+(+_+:+<+[+}+|+1+2+3+4+5+6+7+8+9+0+a+b+c+d+e+    ",
"    f+g+h+i+j+k+l+m+n+o+p+q+r+s+t+u+v+w+x+..y+z+A+B+C+D+E+F+G+  ",
"  H+I+J+K+L+ .M+N+O+P+Q+R+S+T+U+V+W+X+Y+Z+`+ @.@+@@@#@$@%@&@*@  ",
"  =@-@;@>@,@'@)@!@~@{@]@^@/@(@_@:@<@[@}@8+|@1@2@3@4@#@5@6@7@8@  ",
"  9@0@a@b@c@d@e@f@g@h@i@j@k@m l@m@n@o@p@q@r@s@t@u@v@w@x@y@z@A@  ",
"  B@$@C@D@E@.@F@G@H@I@J@K@L@M@N@O@P@Q@R@S@T@U@V@W@X@Y@Z@`@ #.#  ",
"  +#@###$#%#&#*#=#-#;#1@>#,#'#)#!#~#{#]#^#/#@@(#W@_#:#<#[#}#|#  ",
"  1#2#3#4#5#6#7#8#9#0#a#/#b#c#d#e#c+f#g#h#i#j#k#$@:#l#m#n#o#p#  ",
"  q#r#s#Z@t#u#v#w#a+x#n.y#v@z#A#B#C#D#E#F#g#G#H#I#n#J#K#L#M#N#  ",
"  O#P#Q#R#S#4#T#U#V#W#X#Y#Z#`# $.$+$@$#$$$%$&$*$=$<#[#-$2#;$>$  ",
"  ,$'$)$!$~${$S#0@]$^$/$($_$:$<$[$}$y@|$%$1$2$3$4$5$6$7$8$9$    ",
"  0$1#a$b$c$d$ $e$%$f$g$h$}$c$i$j$x@k$l$4#m$n$o$4$A#)$p$q$r$    ",
"    s$t$u$v$w$g$x$~$5$f$2#y$-$z$A$B$6$C$D$E$F$G$H$I$J$K$L$M$    ",
"    N$q#J$O$P$!$Q$x$R$S$T$j$p$U$V$W$X$Y$Z$`$ %B$.%+%@%#%$%      ",
"      %%&%*%=%-%c$B$;%j$>%,%'%)%!%~%{%]%^$^%6$w$/%(%_%:%        ",
"      <%[%}%|%1%'$>%2%3%4%5%5%6%7%8%8%9%c$9%0%a%&%b%c%d%        ",
"        e%f%g%h%a$i%j%k%-%/%l%/%m%9%n%I$o%'$h%p%q%r%s%          ",
"          t%u%v%w%x%-%4%4%y%y%i%z%A%m%4%a%B%C%D%E%F%            ",
"            G%H%I%J%w%K%L%M%a$N%M%O%K%P%Q%R%S%T%U%              ",
"              V%W%H%X%Y%J%Z%`% &.&+&@&#&$&%&&&*&                ",
"                =&-&;&>&,&'&)&!&~&{&]&^&/&$%                    ",
"                      (&_&:&<&[&}&|&1&                          "};
